<svg width="20" height="20" viewBox="0 0 20 20" fill="none" xmlns="http://www.w3.org/2000/svg">
<g clip-path="url(#clip0_342_9951)">
<path d="M9.99837 18.3312C14.6002 18.3312 18.3307 14.6007 18.3307 9.99886C18.3307 5.39703 14.6002 1.6665 9.99837 1.6665C5.39654 1.6665 1.66602 5.39703 1.66602 9.99886C1.66602 14.6007 5.39654 18.3312 9.99837 18.3312Z" stroke="#6B6B7B" stroke-width="1.66647" stroke-linecap="round" stroke-linejoin="round"/>
<path d="M9.99941 14.9983C12.7605 14.9983 14.9988 12.76 14.9988 9.99893C14.9988 7.23783 12.7605 4.99951 9.99941 4.99951C7.23831 4.99951 5 7.23783 5 9.99893C5 12.76 7.23831 14.9983 9.99941 14.9983Z" stroke="#6B6B7B" stroke-width="1.66647" stroke-linecap="round" stroke-linejoin="round"/>
<path d="M9.9985 11.6655C10.9189 11.6655 11.665 10.9194 11.665 9.99899C11.665 9.07862 10.9189 8.33252 9.9985 8.33252C9.07814 8.33252 8.33203 9.07862 8.33203 9.99899C8.33203 10.9194 9.07814 11.6655 9.9985 11.6655Z" stroke="#6B6B7B" stroke-width="1.66647" stroke-linecap="round" stroke-linejoin="round"/>
</g>
<defs>
<clipPath id="clip0_342_9951">
<rect width="19.9977" height="19.9977" fill="white"/>
</clipPath>
</defs>
</svg>
