<svg width="20" height="20" viewBox="0 0 20 20" fill="none" xmlns="http://www.w3.org/2000/svg">
<path d="M11.9995 11.9986L8 7.99902" stroke="white" stroke-width="1.66647" stroke-linecap="round" stroke-linejoin="round"/>
<path d="M15.5461 17.902C15.2336 18.2146 14.8097 18.3902 14.3677 18.3903C13.9258 18.3904 13.5018 18.2149 13.1893 17.9024C12.8767 17.5899 12.701 17.1661 12.7009 16.7241C12.7009 16.2821 12.8764 15.8582 13.1888 15.5456L11.7165 17.0187C11.4039 17.3313 10.98 17.5069 10.5379 17.5069C10.0958 17.5069 9.67188 17.3313 9.35929 17.0187C9.0467 16.7062 8.87109 16.2822 8.87109 15.8401C8.87109 15.3981 9.0467 14.9741 9.35929 14.6615L14.662 9.3588C14.9746 9.04622 15.3985 8.87061 15.8406 8.87061C16.2827 8.87061 16.7066 9.04622 17.0192 9.3588C17.3318 9.67139 17.5074 10.0953 17.5074 10.5374C17.5074 10.9795 17.3318 11.4034 17.0192 11.716L15.5461 13.1884C15.8587 12.8759 16.2826 12.7004 16.7246 12.7005C17.1665 12.7005 17.5904 12.8762 17.9029 13.1888C18.2154 13.5014 18.3909 13.9253 18.3908 14.3673C18.3907 14.8092 18.215 15.2331 17.9025 15.5456L15.5461 17.902Z" stroke="white" stroke-width="1.66647" stroke-linecap="round" stroke-linejoin="round"/>
<path d="M17.9146 17.9146L16.748 16.748" stroke="white" stroke-width="1.66647" stroke-linecap="round" stroke-linejoin="round"/>
<path d="M3.25051 3.24954L2.08398 2.08301" stroke="white" stroke-width="1.66647" stroke-linecap="round" stroke-linejoin="round"/>
<path d="M5.33619 10.6389C5.02361 10.9515 4.59965 11.1271 4.15758 11.1271C3.71552 11.1271 3.29156 10.9515 2.97897 10.6389C2.66638 10.3263 2.49077 9.90236 2.49077 9.4603C2.49077 9.01823 2.66638 8.59427 2.97897 8.28168L4.45213 6.80936C4.29735 6.96408 4.11362 7.0868 3.91141 7.17052C3.70921 7.25423 3.49249 7.2973 3.27364 7.29726C2.83165 7.29718 2.4078 7.12153 2.09532 6.80894C1.9406 6.65416 1.81788 6.47042 1.73416 6.26822C1.65045 6.06601 1.60738 5.8493 1.60742 5.63045C1.6075 5.18846 1.78315 4.76461 2.09574 4.45213L4.45213 2.09574C4.76461 1.78315 5.18846 1.6075 5.63045 1.60742C5.8493 1.60738 6.06601 1.65045 6.26822 1.73416C6.47042 1.81788 6.65416 1.9406 6.80894 2.09532C6.96372 2.25005 7.0865 2.43374 7.17029 2.63592C7.25408 2.83809 7.29722 3.05479 7.29726 3.27364C7.2973 3.49249 7.25423 3.70921 7.17052 3.91141C7.0868 4.11362 6.96408 4.29735 6.80936 4.45213L8.28168 2.97897C8.59427 2.66638 9.01823 2.49077 9.4603 2.49077C9.90236 2.49077 10.3263 2.66638 10.6389 2.97897C10.9515 3.29156 11.1271 3.71552 11.1271 4.15758C11.1271 4.59965 10.9515 5.02361 10.6389 5.33619L5.33619 10.6389Z" stroke="white" stroke-width="1.66647" stroke-linecap="round" stroke-linejoin="round"/>
</svg>
