<svg width="20" height="20" viewBox="0 0 20 20" fill="none" xmlns="http://www.w3.org/2000/svg">
<path d="M10.691 1.8163C10.4739 1.71726 10.238 1.66602 9.9994 1.66602C9.76077 1.66602 9.52492 1.71726 9.30781 1.8163L2.16699 5.06591C2.01913 5.13111 1.89342 5.23789 1.80516 5.37326C1.71691 5.50863 1.66992 5.66673 1.66992 5.82833C1.66992 5.98992 1.71691 6.14803 1.80516 6.28339C1.89342 6.41876 2.01913 6.52554 2.16699 6.59074L9.31615 9.84869C9.53326 9.94772 9.7691 9.99897 10.0077 9.99897C10.2464 9.99897 10.4822 9.94772 10.6993 9.84869L17.8485 6.59907C17.9963 6.53387 18.1221 6.42709 18.2103 6.29172C18.2986 6.15636 18.3455 5.99825 18.3455 5.83666C18.3455 5.67506 18.2986 5.51696 18.2103 5.38159C18.1221 5.24623 17.9963 5.13944 17.8485 5.07425L10.691 1.8163Z" stroke="#6B6B7B" stroke-width="1.66647" stroke-linecap="round" stroke-linejoin="round"/>
<path d="M1.66602 9.99902C1.66562 10.1584 1.71094 10.3145 1.7966 10.4489C1.88226 10.5833 2.00466 10.6903 2.14929 10.7573L9.31512 14.0152C9.5311 14.113 9.76546 14.1636 10.0025 14.1636C10.2396 14.1636 10.474 14.113 10.69 14.0152L17.8391 10.7656C17.9866 10.6993 18.1116 10.5915 18.1989 10.4554C18.2862 10.3193 18.332 10.1607 18.3307 9.99902" stroke="#6B6B7B" stroke-width="1.66647" stroke-linecap="round" stroke-linejoin="round"/>
<path d="M1.66602 14.165C1.66562 14.3244 1.71094 14.4805 1.7966 14.6149C1.88226 14.7493 2.00466 14.8563 2.14929 14.9233L9.31512 18.1812C9.5311 18.279 9.76546 18.3296 10.0025 18.3296C10.2396 18.3296 10.474 18.279 10.69 18.1812L17.8391 14.9316C17.9866 14.8653 18.1116 14.7575 18.1989 14.6214C18.2862 14.4853 18.332 14.3267 18.3307 14.165" stroke="#6B6B7B" stroke-width="1.66647" stroke-linecap="round" stroke-linejoin="round"/>
</svg>
